<?xml version="1.0" standalone="no"?>
<!DOCTYPE svg PUBLIC "-//W3C//DTD SVG 20010904//EN"
 "http://www.w3.org/TR/2001/REC-SVG-20010904/DTD/svg10.dtd">
<svg version="1.0" xmlns="http://www.w3.org/2000/svg"
 width="150.000000pt" height="150.000000pt" viewBox="0 0 150.000000 150.000000"
 preserveAspectRatio="xMidYMid meet">

<g transform="translate(0.000000,150.000000) scale(0.100000,-0.100000)"
fill="#000000" stroke="none">
<path d="M67 1293 c-4 -3 -7 -111 -7 -239 l0 -233 55 -6 55 -7 0 -49 0 -48
-52 -3 -53 -3 0 -240 0 -240 690 0 690 0 0 240 0 240 -52 3 -53 3 0 48 0 49
55 7 55 6 -2 237 -3 237 -686 3 c-377 1 -689 -1 -692 -5z m1273 -237 l0 -135
-52 -3 -53 -3 0 -155 0 -155 53 -3 52 -3 0 -135 0 -134 -585 0 -585 0 0 134 0
135 53 3 52 3 0 155 0 155 -52 3 -53 3 0 135 0 134 585 0 585 0 0 -134z"/>
<path d="M555 908 c-3 -8 -4 -79 -3 -158 l3 -145 30 0 30 0 0 155 0 155 -28 3
c-16 2 -29 -2 -32 -10z"/>
<path d="M895 908 c-3 -8 -4 -79 -3 -158 l3 -145 30 0 30 0 0 155 0 155 -28 3
c-16 2 -29 -2 -32 -10z"/>
</g>
</svg>
